<?xml version="1.0" encoding="UTF-8" standalone="no"?>
<!-- Created with Inkscape (http://www.inkscape.org/) -->

<svg
   xmlns:dc="http://purl.org/dc/elements/1.1/"
   xmlns:cc="http://creativecommons.org/ns#"
   xmlns:rdf="http://www.w3.org/1999/02/22-rdf-syntax-ns#"
   xmlns:svg="http://www.w3.org/2000/svg"
   xmlns="http://www.w3.org/2000/svg"
   xmlns:sodipodi="http://sodipodi.sourceforge.net/DTD/sodipodi-0.dtd"
   xmlns:inkscape="http://www.inkscape.org/namespaces/inkscape"
   width="200mm"
   height="400mm"
   viewBox="0 0 708.66141 1417.3229"
   id="svg2"
   version="1.1"
   inkscape:version="0.91 r13725"
   sodipodi:docname="case_pre-kerf.svg">
  <defs
     id="defs4" />
  <sodipodi:namedview
     id="base"
     pagecolor="#ffffff"
     bordercolor="#666666"
     borderopacity="1.0"
     inkscape:pageopacity="0.0"
     inkscape:pageshadow="2"
     inkscape:zoom="2.828427"
     inkscape:cx="174.27768"
     inkscape:cy="89.094144"
     inkscape:document-units="mm"
     inkscape:current-layer="layer1"
     showgrid="true"
     inkscape:window-width="1920"
     inkscape:window-height="1060"
     inkscape:window-x="0"
     inkscape:window-y="20"
     inkscape:window-maximized="0"
     inkscape:snap-global="true"
     showguides="true"
     inkscape:guide-bbox="true"
     inkscape:snap-object-midpoints="true">
    <inkscape:grid
       type="xygrid"
       id="grid4136"
       units="mm"
       spacingx="0.35433071"
       spacingy="0.35433071"
       empspacing="10" />
    <sodipodi:guide
       position="203.74015,162.6378"
       orientation="1,0"
       id="guide4214" />
    <sodipodi:guide
       position="111.9685,191.69291"
       orientation="1,0"
       id="guide4858" />
    <sodipodi:guide
       position="295.51181,187.08661"
       orientation="1,0"
       id="guide4860" />
    <sodipodi:guide
       position="99.56693,118.70079"
       orientation="0,1"
       id="guide4862" />
    <sodipodi:guide
       position="111.45218,90.553868"
       orientation="0,1"
       id="guide4337" />
  </sodipodi:namedview>
  <metadata
     id="metadata7">
    <rdf:RDF>
      <cc:Work
         rdf:about="">
        <dc:format>image/svg+xml</dc:format>
        <dc:type
           rdf:resource="http://purl.org/dc/dcmitype/StillImage" />
        <dc:title></dc:title>
      </cc:Work>
    </rdf:RDF>
  </metadata>
  <g
     inkscape:label="Layer 1"
     inkscape:groupmode="layer"
     id="layer1"
     transform="translate(0,364.96063)">
    <path
       style="fill:#b2b2b2;fill-opacity:1;fill-rule:nonzero;stroke:#000000;stroke-width:0.10754445;stroke-miterlimit:4;stroke-dasharray:none;stroke-opacity:1"
       d="m 302.40944,857.28565 c -22.47379,-0.44201 -44.78087,9.17053 -59.19775,26.54164 -27.16393,32.72997 -14.59993,73.76926 7.29286,94.90163 l 0.0273,-0.0273 a 62.875415,62.875415 0 0 1 -18.4422,-44.4335 62.875415,62.875415 0 0 1 62.8757,-62.8736 62.875415,62.875415 0 0 1 62.87569,62.8736 62.875415,62.875415 0 0 1 -18.37078,44.35574 l 15.34609,15.29573 c 35.51245,-35.03992 24.79711,-89.09488 -3.29774,-116.27405 -14.04747,-13.58964 -31.62955,-20.01617 -49.10918,-20.35988 z"
       id="circle4311"
       inkscape:connector-curvature="0" />
    <rect
       style="fill:none;fill-opacity:1;fill-rule:nonzero;stroke:#ffa800;stroke-width:1;stroke-miterlimit:4;stroke-dasharray:none;stroke-opacity:1"
       id="rect4163"
       width="407.48032"
       height="237.40163"
       x="0"
       y="814.96069" />
    <rect
       style="fill:none;fill-opacity:1;fill-rule:nonzero;stroke:#000000;stroke-width:0.1;stroke-miterlimit:4;stroke-dasharray:none;stroke-opacity:1"
       id="rect4165"
       width="389.26492"
       height="200.24573"
       x="0"
       y="833.55322" />
    <rect
       style="fill:none;fill-opacity:1;fill-rule:nonzero;stroke:#00e841;stroke-width:1;stroke-miterlimit:4;stroke-dasharray:none;stroke-opacity:1"
       id="rect4167"
       width="407.48032"
       height="139.96069"
       x="0"
       y="912.40161" />
    <rect
       style="fill:none;fill-opacity:1;fill-rule:nonzero;stroke:#ff0000;stroke-width:1;stroke-miterlimit:4;stroke-dasharray:none;stroke-opacity:1"
       id="rect4171"
       width="139.96063"
       height="237.40163"
       x="0"
       y="814.96069" />
    <circle
       style="fill:none;fill-opacity:1;fill-rule:nonzero;stroke:#a300ff;stroke-width:1.77165354;stroke-miterlimit:4;stroke-dasharray:none;stroke-opacity:1"
       id="path4181"
       cx="0"
       cy="1052.3623"
       r="5.3149605" />
    <circle
       r="5.3149605"
       cy="1009.1404"
       cx="42.757862"
       id="circle4185"
       style="fill:#000000;fill-opacity:1;fill-rule:nonzero;stroke:#000000;stroke-width:0.1;stroke-miterlimit:4;stroke-dasharray:none;stroke-opacity:1" />
    <circle
       r="5.3149605"
       cy="858.37793"
       cx="42.724716"
       id="circle4187"
       style="fill:#000000;fill-opacity:1;fill-rule:nonzero;stroke:#000000;stroke-width:0.1;stroke-miterlimit:4;stroke-dasharray:none;stroke-opacity:1" />
    <circle
       r="5.3149605"
       cy="858.33881"
       cx="364.44727"
       id="circle4189"
       style="fill:#000000;fill-opacity:1;fill-rule:nonzero;stroke:#000000;stroke-width:0.1;stroke-miterlimit:4;stroke-dasharray:none;stroke-opacity:1" />
    <circle
       r="5.3149605"
       cy="1009.1072"
       cx="364.45831"
       id="circle4191"
       style="fill:#000000;fill-opacity:1;fill-rule:nonzero;stroke:#000000;stroke-width:0.1;stroke-miterlimit:4;stroke-dasharray:none;stroke-opacity:1" />
    <path
       style="fill:none;fill-rule:evenodd;stroke:#000000;stroke-width:0.1;stroke-linecap:butt;stroke-linejoin:miter;stroke-miterlimit:4;stroke-dasharray:none;stroke-opacity:1"
       d="m 0,1052.3623 0,10.643 42.519685,0 0,-10.643 42.519685,0 0,10.643 42.51969,0 0,-10.643 42.51968,0 0,10.643 42.51969,0 0,-10.643 42.51968,0 0,10.643 42.51969,0 0,-10.643 42.51968,0 0,10.643 42.51969,0 0,-10.643 24.79342,0 -0.002,-14.171 5.32641,0 0,-42.51968 -5.31496,0 0,-42.51973 5.31496,0 0,-42.5197 -5.31496,0 0,-12.4016 0,-30.1181 5.31496,0 0,-42.5196 -5.31496,0 0,-10.62792 -0.52007,0.005 -24.28308,-0.005 0,-10.65094 -42.51969,0 0,10.65094 -42.51968,0 0,-10.65094 -42.51969,0 0,10.65094 -42.51968,0 0,-10.65094 -42.51969,0 0,10.65094 -42.51968,0 0,-10.65094 -42.51969,0 0,10.65094 -42.519685,0 0,-10.65094 -42.519685,0 0,10.65094 0,10.63523 -5.3149606,0 0,42.5196 5.3149606,0 0,42.5197 -5.3149606,0 0,42.5197 5.3149606,0 0,42.49627 -5.3149606,0 0,42.51973 5.32017927,0.015 z"
       id="path4193"
       inkscape:connector-curvature="0"
       sodipodi:nodetypes="ccccccccccccccccccccccccccccccccccccccccccccccccccccccccccccccccccccc" />
    <path
       style="fill:none;fill-rule:evenodd;stroke:#000000;stroke-width:0.2;stroke-linecap:butt;stroke-linejoin:miter;stroke-miterlimit:4;stroke-dasharray:none;stroke-opacity:1"
       d="m -5.3149606,1052.3623 0,-14.1733 5.3149606,0 0,-42.51963 -5.3149606,0 0,-42.5197 5.3149606,0 0,-42.5197 -5.3149606,0 0,-42.5197 5.3149606,0 0,-42.5197 -5.3149606,0 0,-21.2574 5.3149606,0 14.173228,0 0,10.6275 42.519685,0 0,-10.6275 42.519685,0 0,10.6275 40.748032,0 0,79.70978 5.3125,0.0106 0,74.40567 -5.3125,0.007 0,83.26838 -40.748032,0 0,10.6196 -42.519685,0 0,-10.6196 -42.519685,0 0,10.6196 -14.173228,0 -5.3125,0.013 z"
       id="path4195"
       inkscape:connector-curvature="0"
       sodipodi:nodetypes="cccccccccccccccccccccccccccccccccccc" />
    <path
       style="fill:none;fill-rule:evenodd;stroke:#000000;stroke-width:0.30000001;stroke-linecap:butt;stroke-linejoin:miter;stroke-miterlimit:4;stroke-dasharray:none;stroke-opacity:1"
       d="m 0,1052.3623 42.519685,0 0,5.3149 42.519685,0 0,-5.3149 42.51969,0 0,5.3149 42.51968,0 0,-5.3149 42.51969,0 0,5.3149 42.51968,0 0,-5.3149 42.51969,0 0,5.3149 42.51968,0 0,-5.3149 42.51969,0 0,5.3149 24.80315,0 0,-5.3149 0,-14.1733 5.31496,0 0,-42.51963 -5.31496,0 0,-42.5197 5.31496,0 0,-40.7481 -5.31496,0 -175.40813,0 6.9e-4,-5.31641 -23.03354,0.003 0.002,19.46909 4.45583,0.0276 0.007,7.7653 -4.45849,0.0209 0.002,9.09092 -10.62238,0.001 -0.002,-9.08894 -4.41721,0.002 -0.002,-7.81791 4.41501,0.006 -0.002,-19.46711 -22.85726,-9.1e-4 0.0204,5.30469 -175.58184,0 -5.3149606,0 0,40.7481 5.3149606,0 0,42.5197 -5.3149606,0 0,42.51961 5.3149606,0 z"
       id="path4199"
       inkscape:connector-curvature="0"
       sodipodi:nodetypes="cccccccccccccccccccccccccccccccccccccccccccccccccccccc" />
    <path
       style="fill:none;fill-opacity:1;fill-rule:nonzero;stroke:#000000;stroke-width:1;stroke-miterlimit:4;stroke-dasharray:none;stroke-opacity:1"
       d="M -5.3149605,804.341 C 209.05512,765.35437 198.4252,765.35437 412.79538,804.341 l 0,93.89323 -5.31641,-0.0138 -0.0117,70.88013 5.32813,0.002 0,93.89424 c -214.3702,38.9717 -203.74028,38.9717 -418.1102705,0 l -1.75e-5,-93.89451 5.31248252,-0.0117 0.0156163,-70.85361 -5.32813382,-0.006 z"
       id="rect4201"
       inkscape:connector-curvature="0"
       sodipodi:nodetypes="ccccccccccccc" />
    <rect
       style="fill:none;fill-opacity:1;fill-rule:nonzero;stroke:#000000;stroke-width:0.30000001;stroke-miterlimit:4;stroke-dasharray:none;stroke-opacity:1"
       id="rect4203"
       width="28.346415"
       height="42.519657"
       x="31.304688"
       y="911.27856"
       rx="2.8346162"
       ry="2.8346162" />
    <circle
       style="fill:none;fill-opacity:1;fill-rule:nonzero;stroke:#0051ff;stroke-width:1.41732283;stroke-miterlimit:4;stroke-dasharray:none;stroke-opacity:1"
       id="path4207"
       cx="-0.35355341"
       cy="1052.3623"
       r="10.62998" />
    <circle
       r="10.62998"
       cy="933.43781"
       cx="65.041847"
       id="circle4209"
       style="fill:none;fill-opacity:1;fill-rule:nonzero;stroke:#000000;stroke-width:0.30000001;stroke-miterlimit:4;stroke-dasharray:none;stroke-opacity:1" />
    <rect
       style="fill:none;fill-opacity:1;fill-rule:nonzero;stroke:#000000;stroke-width:3.54330709;stroke-miterlimit:4;stroke-dasharray:none;stroke-opacity:1"
       id="rect4216"
       width="56.692909"
       height="10.629883"
       x="175.39371"
       y="1052.3623" />
    <rect
       y="804.33075"
       x="175.39371"
       height="10.629944"
       width="56.692902"
       id="rect4218"
       style="fill:none;fill-opacity:1;fill-rule:nonzero;stroke:#000000;stroke-width:3.54330709;stroke-miterlimit:4;stroke-dasharray:none;stroke-opacity:1" />
    <text
       xml:space="preserve"
       style="font-style:normal;font-variant:normal;font-weight:500;font-stretch:normal;font-size:20px;line-height:125%;font-family:Inconsolata;-inkscape-font-specification:'Inconsolata Medium';text-align:end;letter-spacing:0px;word-spacing:0px;text-anchor:end;fill:#000000;fill-opacity:1;stroke:none;stroke-width:1px;stroke-linecap:butt;stroke-linejoin:miter;stroke-opacity:1"
       x="396.24969"
       y="1013.9792"
       id="text4852"
       sodipodi:linespacing="125%"><tspan
         sodipodi:role="line"
         id="tspan4854"
         x="396.24969"
         y="1013.9792">noisEE box</tspan><tspan
         sodipodi:role="line"
         x="396.24969"
         y="1038.9792"
         id="tspan4856">@thenoviceoof</tspan></text>
    <circle
       style="fill:none;fill-opacity:1;fill-rule:nonzero;stroke:#00d4ff;stroke-width:1.41732287;stroke-miterlimit:4;stroke-dasharray:none;stroke-opacity:1"
       id="path4864"
       cx="0"
       cy="1052.3623"
       r="54.92136" />
    <circle
       r="54.92136"
       cy="933.66376"
       cx="111.96851"
       id="circle4866"
       style="fill:none;fill-opacity:1;fill-rule:nonzero;stroke:#00d4ff;stroke-width:1.41732283;stroke-miterlimit:4;stroke-dasharray:none;stroke-opacity:1" />
    <circle
       style="fill:none;fill-opacity:1;fill-rule:nonzero;stroke:#00d4ff;stroke-width:1.41732283;stroke-miterlimit:4;stroke-dasharray:none;stroke-opacity:1"
       id="circle4868"
       cx="295.50616"
       cy="933.66376"
       r="54.92136" />
    <text
       xml:space="preserve"
       style="font-style:normal;font-variant:normal;font-weight:500;font-stretch:normal;font-size:22.5px;line-height:125%;font-family:Ubuntu;-inkscape-font-specification:'Ubuntu Medium';letter-spacing:0px;word-spacing:0px;fill:#000000;fill-opacity:1;stroke:none;stroke-width:1px;stroke-linecap:butt;stroke-linejoin:miter;stroke-opacity:1"
       x="84.86351"
       y="1028.4432"
       id="text4870"
       sodipodi:linespacing="125%"><tspan
         sodipodi:role="line"
         id="tspan4872"
         x="84.86351"
         y="1028.4432">color</tspan></text>
    <text
       sodipodi:linespacing="125%"
       id="text4874"
       y="1028.4432"
       x="257.04404"
       style="font-style:normal;font-variant:normal;font-weight:500;font-stretch:normal;font-size:22.5px;line-height:125%;font-family:Ubuntu;-inkscape-font-specification:'Ubuntu Medium';letter-spacing:0px;word-spacing:0px;fill:#000000;fill-opacity:1;stroke:none;stroke-width:1px;stroke-linecap:butt;stroke-linejoin:miter;stroke-opacity:1"
       xml:space="preserve"><tspan
         y="1028.4432"
         x="257.04404"
         id="tspan4876"
         sodipodi:role="line">volume</tspan></text>
    <text
       sodipodi:linespacing="125%"
       id="text4315"
       y="764.49048"
       x="-647.2915"
       style="font-style:normal;font-variant:normal;font-weight:300;font-stretch:normal;font-size:12.5px;line-height:125%;font-family:Ubuntu;-inkscape-font-specification:'Ubuntu Light';letter-spacing:0px;word-spacing:0px;fill:#000000;fill-opacity:1;stroke:none;stroke-width:1px;stroke-linecap:butt;stroke-linejoin:miter;stroke-opacity:1"
       xml:space="preserve"
       transform="matrix(0.73269563,-0.68055648,0.68055648,0.73269563,0,0)"><tspan
         y="764.49048"
         x="-647.2915"
         id="tspan4317"
         sodipodi:role="line">white</tspan></text>
    <text
       xml:space="preserve"
       style="font-style:normal;font-variant:normal;font-weight:300;font-stretch:normal;font-size:12.5px;line-height:125%;font-family:Ubuntu;-inkscape-font-specification:'Ubuntu Light';letter-spacing:0px;word-spacing:0px;fill:#000000;fill-opacity:1;stroke:none;stroke-width:1px;stroke-linecap:butt;stroke-linejoin:miter;stroke-opacity:1"
       x="-873.04767"
       y="115.36407"
       id="text4319"
       sodipodi:linespacing="125%"
       transform="matrix(0,-1,1,0,0,0)"><tspan
         sodipodi:role="line"
         id="tspan4321"
         x="-873.04767"
         y="115.36407">pink</tspan></text>
    <text
       sodipodi:linespacing="125%"
       id="text4323"
       y="589.05737"
       x="801.28192"
       style="font-style:normal;font-variant:normal;font-weight:300;font-stretch:normal;font-size:12.5px;line-height:125%;font-family:Ubuntu;-inkscape-font-specification:'Ubuntu Light';letter-spacing:0px;word-spacing:0px;fill:#000000;fill-opacity:1;stroke:none;stroke-width:1px;stroke-linecap:butt;stroke-linejoin:miter;stroke-opacity:1"
       xml:space="preserve"
       transform="matrix(0.71246815,0.70170445,-0.70170445,0.71246815,0,0)"><tspan
         y="589.05737"
         x="801.28192"
         id="tspan4325"
         sodipodi:role="line">brown</tspan></text>
    <circle
       style="fill:none;fill-opacity:1;fill-rule:nonzero;stroke:#000000;stroke-width:0.3;stroke-miterlimit:4;stroke-dasharray:none;stroke-opacity:1"
       id="path4333"
       cx="111.96432"
       cy="933.66522"
       r="16.89583" />
    <circle
       r="16.89583"
       cy="933.66522"
       cx="295.51138"
       id="circle4335"
       style="fill:none;fill-opacity:1;fill-rule:nonzero;stroke:#000000;stroke-width:0.3;stroke-miterlimit:4;stroke-dasharray:none;stroke-opacity:1" />
    <circle
       style="fill:none;fill-opacity:1;fill-rule:nonzero;stroke:#ff00a2;stroke-width:0.5;stroke-miterlimit:4;stroke-dasharray:none;stroke-opacity:1"
       id="path4339"
       cx="0"
       cy="1052.3623"
       r="4.213006" />
    <circle
       r="4.213006"
       cy="961.80835"
       cx="111.96851"
       id="circle4341"
       style="fill:none;fill-opacity:1;fill-rule:nonzero;stroke:#000000;stroke-width:0.5;stroke-miterlimit:4;stroke-dasharray:none;stroke-opacity:1" />
    <circle
       style="fill:none;fill-opacity:1;fill-rule:nonzero;stroke:#000000;stroke-width:0.5;stroke-miterlimit:4;stroke-dasharray:none;stroke-opacity:1"
       id="circle4343"
       cx="295.51181"
       cy="961.80835"
       r="4.213006" />
  </g>
</svg>
